<svg width="117" height="120" viewBox="0 0 117 120" fill="none" xmlns="http://www.w3.org/2000/svg">
<path opacity="0.4" d="M58.4088 119.921C90.6671 119.921 116.818 111.032 116.818 100.065C116.818 89.0993 90.6671 80.2095 58.4088 80.2095C26.1505 80.2095 0 89.0993 0 100.065C0 111.032 26.1505 119.921 58.4088 119.921Z" fill="url(#paint0_radial_1025_100436)"/>
<path opacity="0.5" d="M56.2853 108.789C71.9367 108.789 84.6246 104.824 84.6246 99.9345C84.6246 95.0446 71.9367 91.0806 56.2853 91.0806C40.634 91.0806 27.946 95.0446 27.946 99.9345C27.946 104.824 40.634 108.789 56.2853 108.789Z" fill="url(#paint1_radial_1025_100436)"/>
<path d="M56.2329 92.4165C32.2454 86.5488 14.8381 64.021 14.8381 38.7688V10.8448L56.4951 3.58875L98.152 10.8448V38.7688C98.152 63.9948 80.7447 86.5488 56.7572 92.3903L56.5213 92.4427L56.2329 92.4165Z" fill="url(#paint2_linear_1025_100436)"/>
<path d="M56.4951 4.66276L97.1034 11.7355V38.7688C97.1034 63.7852 79.7747 85.7106 56.4951 91.3687C33.2155 85.7368 15.8868 63.7852 15.8868 38.7688V11.7355L56.4951 4.66276ZM56.4951 2.54095L56.1281 2.59334L15.5198 9.66604L13.7896 9.98038V38.7688C13.7896 64.4663 31.5377 87.4394 55.997 93.4119L56.4951 93.5429L56.9932 93.4119C81.4526 87.4394 99.2007 64.4663 99.2007 38.7688V9.95418L97.4704 9.63984L56.8621 2.56715L56.4951 2.54095Z" fill="#CACACA"/>
<path d="M56.495 4.66272L15.8867 11.7354V38.7688C15.8867 63.7852 33.2154 38.795 56.495 44.4794C79.7747 38.795 97.1033 63.7852 97.1033 38.7688V11.7354L56.495 4.66272Z" fill="url(#paint3_linear_1025_100436)" stroke="#CACACA" stroke-width="2" stroke-miterlimit="10"/>
<path d="M57.4125 52.3379C73.0639 52.3379 85.7518 40.6217 85.7518 26.169C85.7518 11.7162 73.0639 0 57.4125 0C41.7612 0 29.0732 11.7162 29.0732 26.169C29.0732 40.6217 41.7612 52.3379 57.4125 52.3379Z" fill="url(#paint4_radial_1025_100436)"/>
<path d="M17.3811 48.854C17.3811 48.854 15.9654 45.8153 15.8868 38.5069C15.8081 31.1984 15.8868 33.4774 15.8868 33.4774C15.8868 33.4774 20.5794 31.9319 24.4593 29.8363C29.4403 27.1382 31.9046 21.5586 36.5186 20.406C40.6345 19.3844 50.5441 23.8114 55.394 23.1041C60.8993 22.2921 65.6444 12.9142 74.2694 14.224C81.3476 15.298 82.3963 25.8022 86.5908 29.2862C89.4745 31.6961 97.0771 36.0183 97.0771 36.0183V38.5069C97.0771 43.3006 95.6877 48.8802 95.6877 48.8802L17.3811 48.854Z" fill="url(#paint5_linear_1025_100436)"/>
<path d="M96.2908 48.3039C96.2908 55.6385 81.2429 69.391 55.9184 69.391C30.3842 69.391 16.5947 55.6385 16.5947 48.3039C16.5947 40.9692 34.0545 42.8815 55.9184 42.8815C77.7824 42.8815 96.2908 40.9692 96.2908 48.3039Z" fill="url(#paint6_radial_1025_100436)"/>
<path d="M96.2908 48.3039C96.2908 55.6385 77.8873 65.4617 56.1806 65.4617C34.4739 65.4617 16.5947 55.3766 16.5947 48.0419C16.5947 40.7073 34.4477 40.5239 56.1806 40.5239C77.9135 40.5239 96.2908 40.9692 96.2908 48.3039Z" fill="url(#paint7_radial_1025_100436)"/>
<g opacity="0.6">
<path opacity="0.6" d="M49.6265 53.412L40.6083 64.3353L42.2861 54.4074L36.5186 55.0099L31.8784 70.1506L39.5859 70.7269L49.4168 62.816L49.3381 71.4342L57.4126 72.0105L55.4202 52.6261L49.6265 53.412Z" fill="url(#paint8_linear_1025_100436)"/>
<path opacity="0.6" d="M61.6858 53.019L65.4871 71.6438L76.2356 70.9889C80.1155 70.7532 82.9468 70.1245 84.6771 69.1029C86.3549 68.0813 86.7481 66.7977 85.9092 65.2522C85.0703 63.7067 83.4449 62.5541 81.0069 61.7682C78.6474 60.9824 75.8948 60.7204 72.6702 60.9562L70.4943 61.1133L67.6892 53.8311L61.6858 53.019ZM73.6926 63.9686C75.1083 63.8638 76.2356 63.9686 77.1007 64.2568C77.9658 64.5449 78.5688 65.0426 78.8572 65.7237C79.4339 67.0597 78.1755 67.8193 75.1345 68.0289L72.8275 68.1861L71.5167 64.1258L73.6926 63.9686Z" fill="url(#paint9_linear_1025_100436)"/>
</g>
<path d="M49.5742 53.6738L42.391 39.5547V54.9312L36.5449 55.9528V29.1814L42.3124 28.186L49.5217 42.3051V26.9286L55.3679 25.907V52.6784L49.5742 53.6738Z" fill="white"/>
<path d="M61.6072 53.281V26.5095L69.603 27.6883C72.5392 28.1336 74.8199 29.26 76.4977 31.0675C78.1756 32.8749 78.9882 35.1801 78.9882 37.9568C78.9882 40.7073 78.1493 42.7767 76.4453 44.1912C74.7413 45.5796 72.4867 46.0773 69.6554 45.6582L67.7417 45.37V54.1978L61.6072 53.281ZM69.5768 40.2882C70.7565 40.4715 71.6478 40.2882 72.2508 39.7381C72.8538 39.2142 73.1683 38.3235 73.1683 37.1448C73.1683 34.761 71.9624 33.3988 69.5506 33.0583L67.7417 32.7964V40.0262L69.5768 40.2882Z" fill="white"/>
<path d="M56.495 4.66272L15.8867 11.7354V38.7688C15.8867 63.7852 33.2154 85.7105 56.495 91.3687C79.7747 85.7105 97.1033 63.7852 97.1033 38.7688V11.7354L56.495 4.66272Z" stroke="white" stroke-width="2" stroke-miterlimit="10"/>
<defs>
<radialGradient id="paint0_radial_1025_100436" cx="0" cy="0" r="1" gradientUnits="userSpaceOnUse" gradientTransform="translate(62.2809 101.997) scale(51.8639 17.9141)">
<stop stop-opacity="0.7"/>
<stop offset="0.58" stop-opacity="0.44"/>
<stop offset="0.64" stop-opacity="0.37"/>
<stop offset="0.98" stop-opacity="0"/>
</radialGradient>
<radialGradient id="paint1_radial_1025_100436" cx="0" cy="0" r="1" gradientUnits="userSpaceOnUse" gradientTransform="translate(56.1462 99.9111) scale(25.3523 7.94741)">
<stop stop-opacity="0.71"/>
<stop offset="0.98" stop-opacity="0"/>
</radialGradient>
<linearGradient id="paint2_linear_1025_100436" x1="31.3681" y1="52.9475" x2="87.0383" y2="36.7065" gradientUnits="userSpaceOnUse">
<stop offset="0.07" stop-color="#3D130E"/>
<stop offset="0.2" stop-color="#401610"/>
<stop offset="0.3" stop-color="#4B1F14"/>
<stop offset="0.4" stop-color="#5C2D1C"/>
<stop offset="0.5" stop-color="#754227"/>
<stop offset="0.59" stop-color="#955C36"/>
<stop offset="0.66" stop-color="#B27543"/>
<stop offset="0.79" stop-color="#B47745"/>
<stop offset="0.85" stop-color="#B97E4C"/>
<stop offset="0.89" stop-color="#C28B59"/>
<stop offset="0.93" stop-color="#CF9D6B"/>
<stop offset="0.96" stop-color="#E0B582"/>
<stop offset="0.99" stop-color="#F5D19E"/>
<stop offset="1" stop-color="#FDDDAA"/>
</linearGradient>
<linearGradient id="paint3_linear_1025_100436" x1="56.495" y1="6.62998" x2="56.495" y2="47.3189" gradientUnits="userSpaceOnUse">
<stop stop-color="#62BEFA"/>
<stop offset="0.15" stop-color="#5FBBF6"/>
<stop offset="0.3" stop-color="#55B2E9"/>
<stop offset="0.45" stop-color="#45A2D5"/>
<stop offset="0.6" stop-color="#2E8DB8"/>
<stop offset="0.67" stop-color="#2282A9"/>
</linearGradient>
<radialGradient id="paint4_radial_1025_100436" cx="0" cy="0" r="1" gradientUnits="userSpaceOnUse" gradientTransform="translate(58.304 28.7252) scale(28.3489 26.2055)">
<stop offset="0.08" stop-color="#FCFCFC"/>
<stop offset="0.36" stop-color="white"/>
<stop offset="0.42" stop-color="white" stop-opacity="0.89"/>
<stop offset="0.64" stop-color="white" stop-opacity="0.51"/>
<stop offset="0.81" stop-color="white" stop-opacity="0.24"/>
<stop offset="0.94" stop-color="white" stop-opacity="0.07"/>
<stop offset="1" stop-color="white" stop-opacity="0"/>
</radialGradient>
<linearGradient id="paint5_linear_1025_100436" x1="53.9782" y1="16.1373" x2="57.182" y2="44.7194" gradientUnits="userSpaceOnUse">
<stop stop-color="#708F47"/>
<stop offset="0.62" stop-color="#1F4E4D"/>
<stop offset="1" stop-color="#0D2424"/>
</linearGradient>
<radialGradient id="paint6_radial_1025_100436" cx="0" cy="0" r="1" gradientUnits="userSpaceOnUse" gradientTransform="translate(56.6435 47.299) rotate(-1.13353) scale(37.1823 18.3927)">
<stop stop-color="#6E9536"/>
<stop offset="0.63" stop-color="#435B1F"/>
<stop offset="1" stop-color="#2E3E13"/>
</radialGradient>
<radialGradient id="paint7_radial_1025_100436" cx="0" cy="0" r="1" gradientUnits="userSpaceOnUse" gradientTransform="translate(56.51 44.8247) rotate(-1.14486) scale(45.0294 22.497)">
<stop offset="0.55" stop-color="#6E9536"/>
<stop offset="0.82" stop-color="#4C6624"/>
<stop offset="1" stop-color="#374919"/>
</radialGradient>
<linearGradient id="paint8_linear_1025_100436" x1="44.6455" y1="55.6359" x2="44.6455" y2="68.9142" gradientUnits="userSpaceOnUse">
<stop/>
<stop offset="1" stop-color="#304219" stop-opacity="0"/>
</linearGradient>
<linearGradient id="paint9_linear_1025_100436" x1="74.0107" y1="55.9114" x2="74.0107" y2="68.6694" gradientUnits="userSpaceOnUse">
<stop/>
<stop offset="1" stop-color="#304219" stop-opacity="0"/>
</linearGradient>
</defs>
</svg>
